<?xml version="1.0" encoding="utf-8"?>
<!-- Generator: Adobe Illustrator 22.1.0, SVG Export Plug-In . SVG Version: 6.00 Build 0)  -->
<svg version="1.1" id="Layer_1" xmlns="http://www.w3.org/2000/svg" xmlns:xlink="http://www.w3.org/1999/xlink" x="0px" y="0px"
	 viewBox="0 0 75 75" style="enable-background:new 0 0 75 75;" xml:space="preserve">
<style type="text/css">
	.st0{fill:url(#SVGID_1_);stroke:#000000;stroke-miterlimit:10;}
	.st1{fill:#1C1C1C;}
	.st2{fill:#FFFFFF;}
</style>
<g>
	<g>
		
			<image style="overflow:visible;opacity:0.54;enable-background:new    ;" width="60" height="59" xlink:href="7BC846C0.png"  transform="matrix(0.9916 0 0 0.9916 7.9423 18.2489)">
		</image>
		<g>
			<g>
				<g>
					
						<linearGradient id="SVGID_1_" gradientUnits="userSpaceOnUse" x1="11.7" y1="1075.3" x2="63.3" y2="1075.3" gradientTransform="matrix(1 0 0 1 0 -1028)">
						<stop  offset="0" style="stop-color:#FFFFFF"/>
						<stop  offset="0.6051" style="stop-color:#FFFFFF"/>
						<stop  offset="1" style="stop-color:#FFFFFF"/>
					</linearGradient>
					<circle class="st0" cx="37.5" cy="47.3" r="25.8"/>
				</g>
			</g>
		</g>
	</g>
	<g>
		<circle class="st1" cx="37.5" cy="47.2" r="22.1"/>
	</g>
	<g>
		<path class="st2" d="M46.9,38v1.3h-5.2V38H46.9z M44.7,40.9h-3v1.3h3V40.9z M44.7,35h-3v1.3h3V35z M41.7,45.2h5.2v-1.3h-5.2V45.2z
			 M44.7,46.8h-3v1.3h3V46.8z M43.6,55.6c0,3.8-3.1,6.8-6.8,6.8c-3.8,0-6.8-3.1-6.8-6.8c0-2.4,1.3-4.7,3.4-5.9V34.3
			c0-1.9,1.6-3.5,3.5-3.5c1.9,0,3.5,1.6,3.5,3.5v15.5C42.3,51,43.6,53.2,43.6,55.6z M42.2,55.6c0-2.1-1.2-3.9-3-4.9l-0.4-0.2V34.3
			c0-1.2-0.9-2.1-2.1-2.1c-1.2,0-2.1,0.9-2.1,2.1v16.3l-0.4,0.2c-1.9,0.9-3,2.8-3,4.9c0,3,2.5,5.5,5.5,5.5
			C39.8,61.1,42.2,58.7,42.2,55.6z M41.1,55.6c0,2.4-2,4.4-4.4,4.4c-2.4,0-4.4-2-4.4-4.4c0-2,1.3-3.7,3.2-4.2l0.3-0.1V43h1.7v8.3
			l0.3,0.1C39.8,51.9,41.1,53.7,41.1,55.6z"/>
	</g>
</g>
</svg>
