<?xml version="1.0" encoding="utf-8"?>
<!-- Generator: Adobe Illustrator 22.1.0, SVG Export Plug-In . SVG Version: 6.00 Build 0)  -->
<svg version="1.1" id="Layer_1" xmlns="http://www.w3.org/2000/svg" xmlns:xlink="http://www.w3.org/1999/xlink" x="0px" y="0px"
	 viewBox="0 0 75 75" style="enable-background:new 0 0 75 75;" xml:space="preserve">
<style type="text/css">
	.st0{fill:url(#SVGID_1_);stroke:#000000;stroke-miterlimit:10;}
	.st1{fill:#1C1C1C;}
	.st2{fill:#FFFFFF;}
</style>
<g>
	<g>
		
			<image style="overflow:visible;opacity:0.54;enable-background:new    ;" width="60" height="59" xlink:href="7BC846C0.png"  transform="matrix(0.9916 0 0 0.9916 7.9423 18.2489)">
		</image>
		<g>
			<g>
				<g>
					
						<linearGradient id="SVGID_1_" gradientUnits="userSpaceOnUse" x1="11.7" y1="1075.3" x2="63.3" y2="1075.3" gradientTransform="matrix(1 0 0 1 0 -1028)">
						<stop  offset="0" style="stop-color:#FFFFFF"/>
						<stop  offset="0.6051" style="stop-color:#FFFFFF"/>
						<stop  offset="1" style="stop-color:#FFFFFF"/>
					</linearGradient>
					<circle class="st0" cx="37.5" cy="47.3" r="25.8"/>
				</g>
			</g>
		</g>
	</g>
	<g>
		<circle class="st1" cx="37.5" cy="47.2" r="22.1"/>
	</g>
</g>
<path id="XMLID_3_" class="st2" d="M42.6,48.8c0.7,0.3,1.3,0.8,1.8,1.5c0.4,0.4,0.7,0.9,1.2,1.3c0.7,0.5,1.4,0.8,2.3,0.9
	c1.4,0.2,2.8-0.3,3.9-1.4c1.2-1.2,1.7-2.9,1.5-4.7c-0.2-1.9-1.2-3.5-2.6-4.7c-1.5-1.2-3.4-1.7-5.3-1.5c-2,0.2-4.1,1.3-5.7,2.8
	c-0.4,0.4-1.1,0-0.9-0.6l0,0c0.3-0.8,0.8-1.3,1.5-1.8c0.9-0.7,2-1.6,2.2-3.5c0.2-1.6-0.5-3.2-1.8-4.3c-1.1-0.9-2.7-1.3-4.3-1.1
	c-3.9,0.5-6.7,4-6.2,8c0.2,2,1.3,4.1,2.8,5.7c0.4,0.4,0,1.1-0.6,0.9l0,0c-0.7-0.2-1.3-0.8-1.8-1.5c-0.4-0.4-0.7-0.9-1.2-1.3
	c-0.7-0.5-1.4-0.8-2.3-0.9c-1.4-0.2-2.9,0.3-3.9,1.4c-1.2,1.2-1.7,2.9-1.5,4.7c0.2,1.9,1.2,3.5,2.6,4.7c1.5,1.2,3.4,1.7,5.3,1.5
	c2-0.2,4.1-1.3,5.7-2.8c0.4-0.4,1.1,0,0.9,0.6l0,0c-0.3,0.8-0.8,1.3-1.5,1.8c-0.9,0.7-2,1.6-2.2,3.5c-0.2,1.6,0.5,3.2,1.8,4.3
	c1.1,0.9,2.7,1.3,4.3,1.1c3.9-0.5,6.7-4,6.2-8c-0.2-2-1.3-4.1-2.8-5.7C41.7,49.3,42.1,48.7,42.6,48.8L42.6,48.8z M37.7,49.1
	c-0.9,0.1-1.7-0.6-1.8-1.4c-0.1-0.9,0.5-1.7,1.4-1.8c0.4-0.1,0.9,0.1,1.2,0.3c0.3,0.3,0.6,0.7,0.6,1.1C39.2,48.2,38.6,49,37.7,49.1z
	"/>
</svg>
