<?xml version="1.0" encoding="utf-8"?>
<!-- Generator: Adobe Illustrator 22.1.0, SVG Export Plug-In . SVG Version: 6.00 Build 0)  -->
<svg version="1.1" id="Layer_1" xmlns="http://www.w3.org/2000/svg" xmlns:xlink="http://www.w3.org/1999/xlink" x="0px" y="0px"
	 viewBox="0 0 75 75" style="enable-background:new 0 0 75 75;" xml:space="preserve">
<style type="text/css">
	.st0{fill:url(#SVGID_1_);stroke:#000000;stroke-miterlimit:10;}
	.st1{fill:#1C1C1C;}
	.st2{fill:#FFFFFF;}
</style>
<g>
	<g>
		
			<image style="overflow:visible;opacity:0.54;enable-background:new    ;" width="60" height="59" xlink:href="7BC846C0.png"  transform="matrix(0.9916 0 0 0.9916 7.9423 18.2489)">
		</image>
		<g>
			<g>
				<g>
					
						<linearGradient id="SVGID_1_" gradientUnits="userSpaceOnUse" x1="11.7" y1="1075.3" x2="63.3" y2="1075.3" gradientTransform="matrix(1 0 0 1 0 -1028)">
						<stop  offset="0" style="stop-color:#FFFFFF"/>
						<stop  offset="0.6051" style="stop-color:#FFFFFF"/>
						<stop  offset="1" style="stop-color:#FFFFFF"/>
					</linearGradient>
					<circle class="st0" cx="37.5" cy="47.3" r="25.8"/>
				</g>
			</g>
		</g>
	</g>
	<g>
		<circle class="st1" cx="37.5" cy="47.2" r="22.1"/>
	</g>
	<path class="st2" d="M44.7,43C44.7,43,44.7,43,44.7,43c0.1-0.1,0.2-0.3,0.2-0.4v-4.5c0-0.3-0.3-0.6-0.6-0.6h-0.1
		c-0.2-0.7-0.6-1.3-1.2-1.7l-1.8-1.2c-0.5-0.3-1-0.5-1.6-0.5h-4.3c-0.6,0-1.1,0.2-1.6,0.5l-1.8,1.2c-0.6,0.4-1,1-1.2,1.7h-0.1
		c-0.3,0-0.6,0.3-0.6,0.6v4.5c0,0.2,0.1,0.3,0.2,0.4l-0.1,0.1c-0.1,0.1,0.4,3.1,0.4,3.1v5.4v0.6c-0.3,0-0.6,0.3-0.6,0.6v4.5
		c0,0.3,0.3,0.6,0.6,0.6h0.1c0.3,1.9,1.9,3.4,3.9,3.4h5.6c2,0,3.6-1.5,3.9-3.4h0.1c0.3,0,0.6-0.3,0.6-0.6v-4.5
		c0-0.3-0.3-0.6-0.6-0.6v-0.6v-5.3L44.7,43z M33.6,40.3c0.2-0.3,0.6-0.5,1-0.5h6c0.4,0,0.7,0.2,1,0.5c0.2,0.3,0.2,0.7,0,1.1
		l-1.1,2.2c-0.2,0.4-0.6,0.6-1,0.6h-3.8c-0.4,0-0.8-0.2-1-0.6l-1.1-2.2C33.4,41.1,33.4,40.6,33.6,40.3z M41.9,55.3
		c-0.1,0.1-1.3,1.3-4.3,1.3c-3,0-4.3-1.2-4.3-1.3c-0.2-0.2-0.2-0.4-0.1-0.6l1.1-2.2c0.1-0.3,0.5-0.4,0.8-0.3c0,0,1,0.5,2.6,0.5
		c1.5,0,2.5-0.5,2.6-0.5c0.1-0.1,0.3-0.1,0.4,0c0.1,0,0.3,0.1,0.3,0.3l1.1,2.2C42.2,54.9,42.1,55.2,41.9,55.3z"/>
</g>
</svg>
